{
	"asset":{
		"generator":"Khronos glTF Blender I/O v4.1.62",
		"version":"2.0"
	},
	"scene":0,
	"scenes":[
		{
			"name":"Scene",
			"nodes":[
				38
			]
		}
	],
	"nodes":[
		{
			"name":"head0",
			"rotation":[
				0.6175448298454285,
				0.0073790098540484905,
				0.010560424067080021,
				0.7864301800727844
			],
			"scale":[
				0.9999999403953552,
				1.0000001192092896,
				1.0000001192092896
			],
			"translation":[
				3.725290298461914e-09,
				4.087069988250732,
				8.817150956019759e-07
			]
		},
		{
			"children":[
				0
			],
			"name":"neck1",
			"rotation":[
				-0.30391645431518555,
				-0.0017163385637104511,
				0.001035784836858511,
				0.9526965618133545
			],
			"scale":[
				0.9999999403953552,
				1,
				1
			],
			"translation":[
				1.6764032295668585e-07,
				4.62380313873291,
				5.968111054244218e-06
			]
		},
		{
			"children":[
				1
			],
			"name":"neck0",
			"rotation":[
				-0.07279454171657562,
				-0.007453098427504301,
				-0.009893878363072872,
				0.9972700476646423
			],
			"scale":[
				0.9999999403953552,
				1,
				1
			],
			"translation":[
				-2.2351741790771484e-08,
				5.530111789703369,
				-2.057728124782443e-06
			]
		},
		{
			"name":"leg_front_right_toe",
			"rotation":[
				-0.5578736066818237,
				-0.09064725786447525,
				-0.09064731001853943,
				0.8199653625488281
			],
			"scale":[
				1,
				1,
				1.0000001192092896
			],
			"translation":[
				5.960464477539063e-08,
				5.261419773101807,
				2.384185791015625e-07
			]
		},
		{
			"children":[
				3
			],
			"name":"leg_front_right_ankle",
			"rotation":[
				0.09921472519636154,
				-0.9796384572982788,
				-0.17329177260398865,
				0.020854415372014046
			],
			"scale":[
				0.9999999403953552,
				0.9999997019767761,
				0.9999998807907104
			],
			"translation":[
				-2.384185791015625e-07,
				10.326665878295898,
				1.3709068298339844e-06
			]
		},
		{
			"children":[
				4
			],
			"name":"leg_front_right_bot0",
			"rotation":[
				-0.004310752265155315,
				0.12359397113323212,
				-0.043787818402051926,
				0.9913569092750549
			],
			"scale":[
				0.9999999403953552,
				1,
				1
			],
			"translation":[
				-4.5890919864177704e-07,
				7.177440643310547,
				2.7849364414578304e-07
			]
		},
		{
			"children":[
				5
			],
			"name":"leg_front_right_top1",
			"rotation":[
				-0.03290282189846039,
				0.9435214400291443,
				0.07915960252285004,
				0.3200289011001587
			],
			"scale":[
				0.9999999403953552,
				1.0000001192092896,
				0.9999999403953552
			],
			"translation":[
				8.940696716308594e-08,
				4.951401233673096,
				-1.7881393432617188e-07
			]
		},
		{
			"children":[
				6
			],
			"name":"leg_front_right_top0",
			"rotation":[
				0.6774832606315613,
				0.1938198059797287,
				0.24605290591716766,
				0.6655135750770569
			],
			"scale":[
				1.0000001192092896,
				0.9999999403953552,
				1
			],
			"translation":[
				-1.8163481950759888,
				2.853070020675659,
				3.4803316593170166
			]
		},
		{
			"name":"leg_front_left_toe",
			"rotation":[
				-0.5578744411468506,
				0.0906473845243454,
				0.09064750373363495,
				0.8199647665023804
			],
			"scale":[
				0.9999999403953552,
				1.0000001192092896,
				1.0000001192092896
			],
			"translation":[
				3.5762786865234375e-07,
				5.261422157287598,
				-8.344650268554688e-07
			]
		},
		{
			"children":[
				8
			],
			"name":"leg_front_left_ankle",
			"rotation":[
				0.09921503067016602,
				0.9796385765075684,
				0.17329111695289612,
				0.02085277996957302
			],
			"scale":[
				0.9999998807907104,
				1.0000003576278687,
				0.9999999403953552
			],
			"translation":[
				-2.384185791015625e-07,
				10.326671600341797,
				-1.5497207641601562e-06
			]
		},
		{
			"children":[
				9
			],
			"name":"leg_front_left_bot0",
			"rotation":[
				-0.004309642594307661,
				-0.12357822805643082,
				0.043788012117147446,
				0.9913589358329773
			],
			"scale":[
				1,
				0.9999998807907104,
				0.9999999403953552
			],
			"translation":[
				-4.681198333855718e-06,
				7.1774396896362305,
				7.600000571983401e-06
			]
		},
		{
			"children":[
				10
			],
			"name":"leg_front_left_top1",
			"rotation":[
				-0.032904405146837234,
				-0.9435266852378845,
				-0.07915923744440079,
				0.3200133442878723
			],
			"scale":[
				1.0000001192092896,
				0.9999999403953552,
				1.000000238418579
			],
			"translation":[
				-2.9280781745910645e-06,
				4.951401710510254,
				4.738569259643555e-06
			]
		},
		{
			"children":[
				11
			],
			"name":"leg_front_left_top0",
			"rotation":[
				0.677483081817627,
				-0.20479647815227509,
				-0.24710293114185333,
				0.6618271470069885
			],
			"scale":[
				1,
				1.0000001192092896,
				1.0000001192092896
			],
			"translation":[
				1.8165796995162964,
				2.820221424102783,
				3.506882429122925
			]
		},
		{
			"children":[
				2,
				7,
				12
			],
			"name":"body_top1",
			"rotation":[
				0.030615948140621185,
				0.0035140111576765776,
				0.004630538169294596,
				0.9995143413543701
			],
			"scale":[
				1,
				0.9999999403953552,
				1
			],
			"translation":[
				0,
				6.881374359130859,
				-2.384185791015625e-07
			]
		},
		{
			"children":[
				13
			],
			"name":"body_top0",
			"rotation":[
				-0.17872236669063568,
				0,
				0,
				0.9838995337486267
			],
			"scale":[
				1,
				0.9999998807907104,
				0.9999998807907104
			],
			"translation":[
				0,
				5.394742488861084,
				-1.3113021850585938e-06
			]
		},
		{
			"name":"tail8",
			"rotation":[
				-0.01490866206586361,
				0.003122892929241061,
				-0.003070850158110261,
				0.9998792409896851
			],
			"scale":[
				0.9999999403953552,
				1.0000001192092896,
				0.9999998807907104
			],
			"translation":[
				0,
				3.8725249767303467,
				3.157183527946472e-07
			]
		},
		{
			"children":[
				15
			],
			"name":"tail7",
			"rotation":[
				0.043308719992637634,
				-0.0008200418087653816,
				-9.846522880252451e-05,
				0.9990614056587219
			],
			"scale":[
				1,
				1.0000001192092896,
				1.0000001192092896
			],
			"translation":[
				-5.21540641784668e-08,
				3.780988931655884,
				-1.564621925354004e-07
			]
		},
		{
			"children":[
				16
			],
			"name":"tail6",
			"rotation":[
				0.03180679678916931,
				-0.0018180576153099537,
				0.0011460124514997005,
				0.9994917511940002
			],
			"scale":[
				1,
				1,
				0.9999999403953552
			],
			"translation":[
				9.313225746154785e-08,
				4.873049736022949,
				-7.348135113716125e-07
			]
		},
		{
			"children":[
				17
			],
			"name":"tail5",
			"rotation":[
				-0.016211459413170815,
				0.0021186822559684515,
				-0.0017050174064934254,
				0.9998648762702942
			],
			"scale":[
				0.9999999403953552,
				1,
				1
			],
			"translation":[
				-4.470348358154297e-08,
				3.844162940979004,
				-2.682209014892578e-07
			]
		},
		{
			"children":[
				18
			],
			"name":"tail4",
			"rotation":[
				0.03407111018896103,
				-0.0008949683979153633,
				0.00012781779514625669,
				0.9994189739227295
			],
			"scale":[
				1.0000001192092896,
				1,
				1
			],
			"translation":[
				-5.21540641784668e-08,
				5.567749500274658,
				-7.008202373981476e-08
			]
		},
		{
			"children":[
				19
			],
			"name":"tail3",
			"rotation":[
				0.009120156988501549,
				-0.012858209200203419,
				0.011481845751404762,
				0.9998098611831665
			],
			"scale":[
				0.9999998807907104,
				0.9999999403953552,
				0.9999998211860657
			],
			"translation":[
				1.955792150454272e-08,
				4.4614434242248535,
				-4.602451753044079e-11
			]
		},
		{
			"children":[
				20
			],
			"name":"tail2",
			"rotation":[
				0.05783648416399956,
				0.0004776284331455827,
				-0.00024234806187450886,
				0.9983258843421936
			],
			"scale":[
				1.0000001192092896,
				1,
				1
			],
			"translation":[
				2.7939677238464355e-09,
				6.106086254119873,
				-6.915724952705204e-07
			]
		},
		{
			"children":[
				21
			],
			"name":"tail1",
			"rotation":[
				0.012985988520085812,
				-0.001040467293933034,
				0.0008543416042812169,
				0.999914824962616
			],
			"scale":[
				1,
				1,
				0.9999999403953552
			],
			"translation":[
				-5.587935447692871e-09,
				5.653892517089844,
				1.0057265171781182e-06
			]
		},
		{
			"children":[
				22
			],
			"name":"tail0",
			"rotation":[
				-0.08925876766443253,
				0.007729826495051384,
				-0.0063188946805894375,
				0.9959584474563599
			],
			"scale":[
				0.9999999403953552,
				0.9999999403953552,
				1
			],
			"translation":[
				-3.725290298461914e-09,
				5.411924839019775,
				-5.649053491652012e-07
			]
		},
		{
			"children":[
				23
			],
			"name":"pelvis",
			"rotation":[
				-0.12395564466714859,
				-0.0043856194242835045,
				0.005203299690037966,
				0.992264449596405
			],
			"scale":[
				1,
				0.9999999403953552,
				1
			],
			"translation":[
				0,
				4.044090270996094,
				-2.7120113372802734e-06
			]
		},
		{
			"name":"leg_hind_left_toe",
			"rotation":[
				-0.5873735547065735,
				-0.017027340829372406,
				-0.017027050256729126,
				0.8089576959609985
			],
			"scale":[
				1.0000001192092896,
				1.0000001192092896,
				0.9999999403953552
			],
			"translation":[
				1.0281801223754883e-06,
				6.625462532043457,
				3.591179847717285e-06
			]
		},
		{
			"children":[
				25
			],
			"name":"leg_hind_left_ankle",
			"rotation":[
				-0.33605530858039856,
				-0.2872105836868286,
				-0.05377423018217087,
				0.8953688144683838
			],
			"scale":[
				1,
				1,
				1.0000001192092896
			],
			"translation":[
				1.0132789611816406e-06,
				11.991883277893066,
				-2.2649765014648438e-06
			]
		},
		{
			"children":[
				26
			],
			"name":"leg_hind_left_bot0",
			"rotation":[
				0.24482156336307526,
				0.7735605835914612,
				-0.07784631848335266,
				0.5793154835700989
			],
			"scale":[
				1,
				0.9999999403953552,
				0.9999999403953552
			],
			"translation":[
				-4.172325134277344e-07,
				4.942925453186035,
				-5.364418029785156e-07
			]
		},
		{
			"children":[
				27
			],
			"name":"leg_hind_left_top1",
			"rotation":[
				0.2670758366584778,
				-0.04260929673910141,
				-0.18286694586277008,
				0.9452061653137207
			],
			"scale":[
				0.9999999403953552,
				1,
				0.9999998807907104
			],
			"translation":[
				-1.1920928955078125e-07,
				4.024930953979492,
				-2.5033950805664062e-06
			]
		},
		{
			"children":[
				28
			],
			"name":"leg_hind_left_top0",
			"rotation":[
				-0.8614935874938965,
				-0.3030862808227539,
				0.3595966696739197,
				0.19146226346492767
			],
			"scale":[
				0.9999998807907104,
				0.9999999403953552,
				0.9999999403953552
			],
			"translation":[
				1.6023496389389038,
				2.935917377471924,
				-3.57425856590271
			]
		},
		{
			"name":"leg_hind_right_toe",
			"rotation":[
				-0.5873735547065735,
				0.017027340829372406,
				0.017027050256729126,
				0.8089576959609985
			],
			"scale":[
				1.0000001192092896,
				1.0000001192092896,
				0.9999999403953552
			],
			"translation":[
				-1.0281801223754883e-06,
				6.625462532043457,
				3.591179847717285e-06
			]
		},
		{
			"children":[
				30
			],
			"name":"leg_hind_right_ankle",
			"rotation":[
				-0.33605530858039856,
				0.2872105836868286,
				0.05377423018217087,
				0.8953688144683838
			],
			"scale":[
				1,
				1,
				1.0000001192092896
			],
			"translation":[
				-1.0132789611816406e-06,
				11.991883277893066,
				-2.2649765014648438e-06
			]
		},
		{
			"children":[
				31
			],
			"name":"leg_hind_right_bot0",
			"rotation":[
				0.24482156336307526,
				-0.7735605835914612,
				0.07784631848335266,
				0.5793154835700989
			],
			"scale":[
				1,
				0.9999999403953552,
				0.9999999403953552
			],
			"translation":[
				4.172325134277344e-07,
				4.942925453186035,
				-5.364418029785156e-07
			]
		},
		{
			"children":[
				32
			],
			"name":"leg_hind_right_top1",
			"rotation":[
				0.2670758366584778,
				0.04260929673910141,
				0.18286694586277008,
				0.9452061653137207
			],
			"scale":[
				0.9999999403953552,
				1,
				0.9999998807907104
			],
			"translation":[
				1.1920928955078125e-07,
				4.024930953979492,
				-2.5033950805664062e-06
			]
		},
		{
			"children":[
				33
			],
			"name":"leg_hind_right_top0",
			"rotation":[
				-0.8614935874938965,
				0.3030862808227539,
				-0.3595966696739197,
				0.19146226346492767
			],
			"scale":[
				0.9999998807907104,
				0.9999999403953552,
				0.9999999403953552
			],
			"translation":[
				-1.6023496389389038,
				2.935917377471924,
				-3.57425856590271
			]
		},
		{
			"children":[
				24,
				29,
				34
			],
			"name":"body_bot",
			"rotation":[
				-0.9991340041160583,
				0,
				0,
				0.04160873964428902
			],
			"scale":[
				1,
				0.9999999403953552,
				1.000011682510376
			],
			"translation":[
				0,
				-4.055355072021484,
				0.9587552547454834
			]
		},
		{
			"children":[
				14,
				35
			],
			"name":"body",
			"rotation":[
				0.04343457892537117,
				0,
				0,
				0.9990562796592712
			],
			"translation":[
				0,
				10.14811897277832,
				-7.868193626403809
			]
		},
		{
			"mesh":0,
			"name":"Fox_low",
			"skin":0
		},
		{
			"children":[
				37,
				36
			],
			"name":"rig",
			"rotation":[
				0.7071068286895752,
				0,
				0,
				0.7071068286895752
			]
		}
	],
	"animations":[
		{
			"channels":[
				{
					"sampler":0,
					"target":{
						"node":36,
						"path":"translation"
					}
				},
				{
					"sampler":1,
					"target":{
						"node":36,
						"path":"rotation"
					}
				},
				{
					"sampler":2,
					"target":{
						"node":36,
						"path":"scale"
					}
				},
				{
					"sampler":3,
					"target":{
						"node":14,
						"path":"translation"
					}
				},
				{
					"sampler":4,
					"target":{
						"node":14,
						"path":"rotation"
					}
				},
				{
					"sampler":5,
					"target":{
						"node":14,
						"path":"scale"
					}
				},
				{
					"sampler":6,
					"target":{
						"node":13,
						"path":"translation"
					}
				},
				{
					"sampler":7,
					"target":{
						"node":13,
						"path":"rotation"
					}
				},
				{
					"sampler":8,
					"target":{
						"node":13,
						"path":"scale"
					}
				},
				{
					"sampler":9,
					"target":{
						"node":2,
						"path":"translation"
					}
				},
				{
					"sampler":10,
					"target":{
						"node":2,
						"path":"rotation"
					}
				},
				{
					"sampler":11,
					"target":{
						"node":2,
						"path":"scale"
					}
				},
				{
					"sampler":12,
					"target":{
						"node":1,
						"path":"translation"
					}
				},
				{
					"sampler":13,
					"target":{
						"node":1,
						"path":"rotation"
					}
				},
				{
					"sampler":14,
					"target":{
						"node":1,
						"path":"scale"
					}
				},
				{
					"sampler":15,
					"target":{
						"node":0,
						"path":"translation"
					}
				},
				{
					"sampler":16,
					"target":{
						"node":0,
						"path":"rotation"
					}
				},
				{
					"sampler":17,
					"target":{
						"node":0,
						"path":"scale"
					}
				},
				{
					"sampler":18,
					"target":{
						"node":7,
						"path":"translation"
					}
				},
				{
					"sampler":19,
					"target":{
						"node":7,
						"path":"rotation"
					}
				},
				{
					"sampler":20,
					"target":{
						"node":7,
						"path":"scale"
					}
				},
				{
					"sampler":21,
					"target":{
						"node":6,
						"path":"translation"
					}
				},
				{
					"sampler":22,
					"target":{
						"node":6,
						"path":"rotation"
					}
				},
				{
					"sampler":23,
					"target":{
						"node":6,
						"path":"scale"
					}
				},
				{
					"sampler":24,
					"target":{
						"node":5,
						"path":"translation"
					}
				},
				{
					"sampler":25,
					"target":{
						"node":5,
						"path":"rotation"
					}
				},
				{
					"sampler":26,
					"target":{
						"node":5,
						"path":"scale"
					}
				},
				{
					"sampler":27,
					"target":{
						"node":4,
						"path":"translation"
					}
				},
				{
					"sampler":28,
					"target":{
						"node":4,
						"path":"rotation"
					}
				},
				{
					"sampler":29,
					"target":{
						"node":4,
						"path":"scale"
					}
				},
				{
					"sampler":30,
					"target":{
						"node":3,
						"path":"translation"
					}
				},
				{
					"sampler":31,
					"target":{
						"node":3,
						"path":"rotation"
					}
				},
				{
					"sampler":32,
					"target":{
						"node":3,
						"path":"scale"
					}
				},
				{
					"sampler":33,
					"target":{
						"node":12,
						"path":"translation"
					}
				},
				{
					"sampler":34,
					"target":{
						"node":12,
						"path":"rotation"
					}
				},
				{
					"sampler":35,
					"target":{
						"node":12,
						"path":"scale"
					}
				},
				{
					"sampler":36,
					"target":{
						"node":11,
						"path":"translation"
					}
				},
				{
					"sampler":37,
					"target":{
						"node":11,
						"path":"rotation"
					}
				},
				{
					"sampler":38,
					"target":{
						"node":11,
						"path":"scale"
					}
				},
				{
					"sampler":39,
					"target":{
						"node":10,
						"path":"translation"
					}
				},
				{
					"sampler":40,
					"target":{
						"node":10,
						"path":"rotation"
					}
				},
				{
					"sampler":41,
					"target":{
						"node":10,
						"path":"scale"
					}
				},
				{
					"sampler":42,
					"target":{
						"node":9,
						"path":"translation"
					}
				},
				{
					"sampler":43,
					"target":{
						"node":9,
						"path":"rotation"
					}
				},
				{
					"sampler":44,
					"target":{
						"node":9,
						"path":"scale"
					}
				},
				{
					"sampler":45,
					"target":{
						"node":8,
						"path":"translation"
					}
				},
				{
					"sampler":46,
					"target":{
						"node":8,
						"path":"rotation"
					}
				},
				{
					"sampler":47,
					"target":{
						"node":8,
						"path":"scale"
					}
				},
				{
					"sampler":48,
					"target":{
						"node":35,
						"path":"translation"
					}
				},
				{
					"sampler":49,
					"target":{
						"node":35,
						"path":"rotation"
					}
				},
				{
					"sampler":50,
					"target":{
						"node":35,
						"path":"scale"
					}
				},
				{
					"sampler":51,
					"target":{
						"node":24,
						"path":"translation"
					}
				},
				{
					"sampler":52,
					"target":{
						"node":24,
						"path":"rotation"
					}
				},
				{
					"sampler":53,
					"target":{
						"node":24,
						"path":"scale"
					}
				},
				{
					"sampler":54,
					"target":{
						"node":23,
						"path":"translation"
					}
				},
				{
					"sampler":55,
					"target":{
						"node":23,
						"path":"rotation"
					}
				},
				{
					"sampler":56,
					"target":{
						"node":23,
						"path":"scale"
					}
				},
				{
					"sampler":57,
					"target":{
						"node":22,
						"path":"translation"
					}
				},
				{
					"sampler":58,
					"target":{
						"node":22,
						"path":"rotation"
					}
				},
				{
					"sampler":59,
					"target":{
						"node":22,
						"path":"scale"
					}
				},
				{
					"sampler":60,
					"target":{
						"node":21,
						"path":"translation"
					}
				},
				{
					"sampler":61,
					"target":{
						"node":21,
						"path":"rotation"
					}
				},
				{
					"sampler":62,
					"target":{
						"node":21,
						"path":"scale"
					}
				},
				{
					"sampler":63,
					"target":{
						"node":20,
						"path":"translation"
					}
				},
				{
					"sampler":64,
					"target":{
						"node":20,
						"path":"rotation"
					}
				},
				{
					"sampler":65,
					"target":{
						"node":20,
						"path":"scale"
					}
				},
				{
					"sampler":66,
					"target":{
						"node":19,
						"path":"translation"
					}
				},
				{
					"sampler":67,
					"target":{
						"node":19,
						"path":"rotation"
					}
				},
				{
					"sampler":68,
					"target":{
						"node":19,
						"path":"scale"
					}
				},
				{
					"sampler":69,
					"target":{
						"node":18,
						"path":"translation"
					}
				},
				{
					"sampler":70,
					"target":{
						"node":18,
						"path":"rotation"
					}
				},
				{
					"sampler":71,
					"target":{
						"node":18,
						"path":"scale"
					}
				},
				{
					"sampler":72,
					"target":{
						"node":17,
						"path":"translation"
					}
				},
				{
					"sampler":73,
					"target":{
						"node":17,
						"path":"rotation"
					}
				},
				{
					"sampler":74,
					"target":{
						"node":17,
						"path":"scale"
					}
				},
				{
					"sampler":75,
					"target":{
						"node":16,
						"path":"translation"
					}
				},
				{
					"sampler":76,
					"target":{
						"node":16,
						"path":"rotation"
					}
				},
				{
					"sampler":77,
					"target":{
						"node":16,
						"path":"scale"
					}
				},
				{
					"sampler":78,
					"target":{
						"node":15,
						"path":"translation"
					}
				},
				{
					"sampler":79,
					"target":{
						"node":15,
						"path":"rotation"
					}
				},
				{
					"sampler":80,
					"target":{
						"node":15,
						"path":"scale"
					}
				},
				{
					"sampler":81,
					"target":{
						"node":29,
						"path":"translation"
					}
				},
				{
					"sampler":82,
					"target":{
						"node":29,
						"path":"rotation"
					}
				},
				{
					"sampler":83,
					"target":{
						"node":29,
						"path":"scale"
					}
				},
				{
					"sampler":84,
					"target":{
						"node":28,
						"path":"translation"
					}
				},
				{
					"sampler":85,
					"target":{
						"node":28,
						"path":"rotation"
					}
				},
				{
					"sampler":86,
					"target":{
						"node":28,
						"path":"scale"
					}
				},
				{
					"sampler":87,
					"target":{
						"node":27,
						"path":"translation"
					}
				},
				{
					"sampler":88,
					"target":{
						"node":27,
						"path":"rotation"
					}
				},
				{
					"sampler":89,
					"target":{
						"node":27,
						"path":"scale"
					}
				},
				{
					"sampler":90,
					"target":{
						"node":26,
						"path":"translation"
					}
				},
				{
					"sampler":91,
					"target":{
						"node":26,
						"path":"rotation"
					}
				},
				{
					"sampler":92,
					"target":{
						"node":26,
						"path":"scale"
					}
				},
				{
					"sampler":93,
					"target":{
						"node":25,
						"path":"translation"
					}
				},
				{
					"sampler":94,
					"target":{
						"node":25,
						"path":"rotation"
					}
				},
				{
					"sampler":95,
					"target":{
						"node":25,
						"path":"scale"
					}
				},
				{
					"sampler":96,
					"target":{
						"node":34,
						"path":"translation"
					}
				},
				{
					"sampler":97,
					"target":{
						"node":34,
						"path":"rotation"
					}
				},
				{
					"sampler":98,
					"target":{
						"node":34,
						"path":"scale"
					}
				},
				{
					"sampler":99,
					"target":{
						"node":33,
						"path":"translation"
					}
				},
				{
					"sampler":100,
					"target":{
						"node":33,
						"path":"rotation"
					}
				},
				{
					"sampler":101,
					"target":{
						"node":33,
						"path":"scale"
					}
				},
				{
					"sampler":102,
					"target":{
						"node":32,
						"path":"translation"
					}
				},
				{
					"sampler":103,
					"target":{
						"node":32,
						"path":"rotation"
					}
				},
				{
					"sampler":104,
					"target":{
						"node":32,
						"path":"scale"
					}
				},
				{
					"sampler":105,
					"target":{
						"node":31,
						"path":"translation"
					}
				},
				{
					"sampler":106,
					"target":{
						"node":31,
						"path":"rotation"
					}
				},
				{
					"sampler":107,
					"target":{
						"node":31,
						"path":"scale"
					}
				},
				{
					"sampler":108,
					"target":{
						"node":30,
						"path":"translation"
					}
				},
				{
					"sampler":109,
					"target":{
						"node":30,
						"path":"rotation"
					}
				},
				{
					"sampler":110,
					"target":{
						"node":30,
						"path":"scale"
					}
				},
				{
					"sampler":111,
					"target":{
						"node":38,
						"path":"translation"
					}
				},
				{
					"sampler":112,
					"target":{
						"node":38,
						"path":"rotation"
					}
				},
				{
					"sampler":113,
					"target":{
						"node":38,
						"path":"scale"
					}
				}
			],
			"name":"rig|rig|walk",
			"samplers":[
				{
					"input":7,
					"interpolation":"STEP",
					"output":8
				},
				{
					"input":7,
					"interpolation":"STEP",
					"output":9
				},
				{
					"input":7,
					"interpolation":"STEP",
					"output":10
				},
				{
					"input":7,
					"interpolation":"STEP",
					"output":11
				},
				{
					"input":12,
					"interpolation":"LINEAR",
					"output":13
				},
				{
					"input":7,
					"interpolation":"STEP",
					"output":14
				},
				{
					"input":7,
					"interpolation":"STEP",
					"output":15
				},
				{
					"input":12,
					"interpolation":"LINEAR",
					"output":16
				},
				{
					"input":7,
					"interpolation":"STEP",
					"output":17
				},
				{
					"input":12,
					"interpolation":"LINEAR",
					"output":18
				},
				{
					"input":12,
					"interpolation":"LINEAR",
					"output":19
				},
				{
					"input":7,
					"interpolation":"STEP",
					"output":20
				},
				{
					"input":7,
					"interpolation":"STEP",
					"output":21
				},
				{
					"input":12,
					"interpolation":"LINEAR",
					"output":22
				},
				{
					"input":7,
					"interpolation":"STEP",
					"output":23
				},
				{
					"input":7,
					"interpolation":"STEP",
					"output":24
				},
				{
					"input":12,
					"interpolation":"LINEAR",
					"output":25
				},
				{
					"input":7,
					"interpolation":"STEP",
					"output":26
				},
				{
					"input":7,
					"interpolation":"STEP",
					"output":27
				},
				{
					"input":12,
					"interpolation":"LINEAR",
					"output":28
				},
				{
					"input":7,
					"interpolation":"STEP",
					"output":29
				},
				{
					"input":7,
					"interpolation":"STEP",
					"output":30
				},
				{
					"input":12,
					"interpolation":"LINEAR",
					"output":31
				},
				{
					"input":7,
					"interpolation":"STEP",
					"output":32
				},
				{
					"input":7,
					"interpolation":"STEP",
					"output":33
				},
				{
					"input":12,
					"interpolation":"LINEAR",
					"output":34
				},
				{
					"input":7,
					"interpolation":"STEP",
					"output":35
				},
				{
					"input":7,
					"interpolation":"STEP",
					"output":36
				},
				{
					"input":12,
					"interpolation":"LINEAR",
					"output":37
				},
				{
					"input":7,
					"interpolation":"STEP",
					"output":38
				},
				{
					"input":7,
					"interpolation":"STEP",
					"output":39
				},
				{
					"input":12,
					"interpolation":"LINEAR",
					"output":40
				},
				{
					"input":7,
					"interpolation":"STEP",
					"output":41
				},
				{
					"input":12,
					"interpolation":"LINEAR",
					"output":42
				},
				{
					"input":12,
					"interpolation":"LINEAR",
					"output":43
				},
				{
					"input":7,
					"interpolation":"STEP",
					"output":44
				},
				{
					"input":7,
					"interpolation":"STEP",
					"output":45
				},
				{
					"input":12,
					"interpolation":"LINEAR",
					"output":46
				},
				{
					"input":7,
					"interpolation":"STEP",
					"output":47
				},
				{
					"input":7,
					"interpolation":"STEP",
					"output":48
				},
				{
					"input":12,
					"interpolation":"LINEAR",
					"output":49
				},
				{
					"input":7,
					"interpolation":"STEP",
					"output":50
				},
				{
					"input":7,
					"interpolation":"STEP",
					"output":51
				},
				{
					"input":12,
					"interpolation":"LINEAR",
					"output":52
				},
				{
					"input":7,
					"interpolation":"STEP",
					"output":53
				},
				{
					"input":7,
					"interpolation":"STEP",
					"output":54
				},
				{
					"input":12,
					"interpolation":"LINEAR",
					"output":55
				},
				{
					"input":7,
					"interpolation":"STEP",
					"output":56
				},
				{
					"input":7,
					"interpolation":"STEP",
					"output":57
				},
				{
					"input":12,
					"interpolation":"LINEAR",
					"output":58
				},
				{
					"input":7,
					"interpolation":"STEP",
					"output":59
				},
				{
					"input":7,
					"interpolation":"STEP",
					"output":60
				},
				{
					"input":12,
					"interpolation":"LINEAR",
					"output":61
				},
				{
					"input":7,
					"interpolation":"STEP",
					"output":62
				},
				{
					"input":7,
					"interpolation":"STEP",
					"output":63
				},
				{
					"input":12,
					"interpolation":"LINEAR",
					"output":64
				},
				{
					"input":7,
					"interpolation":"STEP",
					"output":65
				},
				{
					"input":7,
					"interpolation":"STEP",
					"output":66
				},
				{
					"input":12,
					"interpolation":"LINEAR",
					"output":67
				},
				{
					"input":7,
					"interpolation":"STEP",
					"output":68
				},
				{
					"input":7,
					"interpolation":"STEP",
					"output":69
				},
				{
					"input":12,
					"interpolation":"LINEAR",
					"output":70
				},
				{
					"input":7,
					"interpolation":"STEP",
					"output":71
				},
				{
					"input":7,
					"interpolation":"STEP",
					"output":72
				},
				{
					"input":12,
					"interpolation":"LINEAR",
					"output":73
				},
				{
					"input":7,
					"interpolation":"STEP",
					"output":74
				},
				{
					"input":7,
					"interpolation":"STEP",
					"output":75
				},
				{
					"input":12,
					"interpolation":"LINEAR",
					"output":76
				},
				{
					"input":7,
					"interpolation":"STEP",
					"output":77
				},
				{
					"input":7,
					"interpolation":"STEP",
					"output":78
				},
				{
					"input":12,
					"interpolation":"LINEAR",
					"output":79
				},
				{
					"input":7,
					"interpolation":"STEP",
					"output":80
				},
				{
					"input":7,
					"interpolation":"STEP",
					"output":81
				},
				{
					"input":12,
					"interpolation":"LINEAR",
					"output":82
				},
				{
					"input":7,
					"interpolation":"STEP",
					"output":83
				},
				{
					"input":7,
					"interpolation":"STEP",
					"output":84
				},
				{
					"input":12,
					"interpolation":"LINEAR",
					"output":85
				},
				{
					"input":7,
					"interpolation":"STEP",
					"output":86
				},
				{
					"input":7,
					"interpolation":"STEP",
					"output":87
				},
				{
					"input":12,
					"interpolation":"LINEAR",
					"output":88
				},
				{
					"input":7,
					"interpolation":"STEP",
					"output":89
				},
				{
					"input":7,
					"interpolation":"STEP",
					"output":90
				},
				{
					"input":12,
					"interpolation":"LINEAR",
					"output":91
				},
				{
					"input":7,
					"interpolation":"STEP",
					"output":92
				},
				{
					"input":7,
					"interpolation":"STEP",
					"output":93
				},
				{
					"input":12,
					"interpolation":"LINEAR",
					"output":94
				},
				{
					"input":7,
					"interpolation":"STEP",
					"output":95
				},
				{
					"input":7,
					"interpolation":"STEP",
					"output":96
				},
				{
					"input":12,
					"interpolation":"LINEAR",
					"output":97
				},
				{
					"input":7,
					"interpolation":"STEP",
					"output":98
				},
				{
					"input":7,
					"interpolation":"STEP",
					"output":99
				},
				{
					"input":12,
					"interpolation":"LINEAR",
					"output":100
				},
				{
					"input":7,
					"interpolation":"STEP",
					"output":101
				},
				{
					"input":7,
					"interpolation":"STEP",
					"output":102
				},
				{
					"input":12,
					"interpolation":"LINEAR",
					"output":103
				},
				{
					"input":7,
					"interpolation":"STEP",
					"output":104
				},
				{
					"input":7,
					"interpolation":"STEP",
					"output":105
				},
				{
					"input":12,
					"interpolation":"LINEAR",
					"output":106
				},
				{
					"input":7,
					"interpolation":"STEP",
					"output":107
				},
				{
					"input":7,
					"interpolation":"STEP",
					"output":108
				},
				{
					"input":12,
					"interpolation":"LINEAR",
					"output":109
				},
				{
					"input":7,
					"interpolation":"STEP",
					"output":110
				},
				{
					"input":7,
					"interpolation":"STEP",
					"output":111
				},
				{
					"input":12,
					"interpolation":"LINEAR",
					"output":112
				},
				{
					"input":7,
					"interpolation":"STEP",
					"output":113
				},
				{
					"input":7,
					"interpolation":"STEP",
					"output":114
				},
				{
					"input":12,
					"interpolation":"LINEAR",
					"output":115
				},
				{
					"input":7,
					"interpolation":"STEP",
					"output":116
				},
				{
					"input":7,
					"interpolation":"STEP",
					"output":117
				},
				{
					"input":12,
					"interpolation":"LINEAR",
					"output":118
				},
				{
					"input":7,
					"interpolation":"STEP",
					"output":119
				},
				{
					"input":7,
					"interpolation":"STEP",
					"output":120
				},
				{
					"input":7,
					"interpolation":"STEP",
					"output":121
				},
				{
					"input":7,
					"interpolation":"STEP",
					"output":122
				}
			]
		}
	],
	"materials":[
		{
			"doubleSided":true,
			"name":"Fox",
			"pbrMetallicRoughness":{
				"baseColorFactor":[
					0.5,
					0.5,
					0.5,
					1
				],
				"metallicFactor":0,
				"roughnessFactor":0.5527864098548889
			}
		}
	],
	"meshes":[
		{
			"name":"Fox_low",
			"primitives":[
				{
					"attributes":{
						"POSITION":0,
						"NORMAL":1,
						"TEXCOORD_0":2,
						"JOINTS_0":3,
						"WEIGHTS_0":4
					},
					"indices":5,
					"material":0
				}
			]
		}
	],
	"skins":[
		{
			"inverseBindMatrices":6,
			"joints":[
				36,
				14,
				13,
				2,
				1,
				0,
				7,
				6,
				5,
				4,
				3,
				12,
				11,
				10,
				9,
				8,
				35,
				24,
				23,
				22,
				21,
				20,
				19,
				18,
				17,
				16,
				15,
				29,
				28,
				27,
				26,
				25,
				34,
				33,
				32,
				31,
				30
			],
			"name":"rig"
		}
	],
	"accessors":[
		{
			"bufferView":0,
			"componentType":5126,
			"count":5548,
			"max":[
				10.986394882202148,
				21.666419982910156,
				43.702003479003906
			],
			"min":[
				-10.986394882202148,
				-21.666418075561523,
				-43.702003479003906
			],
			"type":"VEC3"
		},
		{
			"bufferView":1,
			"componentType":5126,
			"count":5548,
			"type":"VEC3"
		},
		{
			"bufferView":2,
			"componentType":5126,
			"count":5548,
			"type":"VEC2"
		},
		{
			"bufferView":3,
			"componentType":5121,
			"count":5548,
			"type":"VEC4"
		},
		{
			"bufferView":4,
			"componentType":5126,
			"count":5548,
			"type":"VEC4"
		},
		{
			"bufferView":5,
			"componentType":5123,
			"count":26655,
			"type":"SCALAR"
		},
		{
			"bufferView":6,
			"componentType":5126,
			"count":37,
			"type":"MAT4"
		},
		{
			"bufferView":7,
			"componentType":5126,
			"count":2,
			"max":[
				1.0333333333333334
			],
			"min":[
				0.03333333333333333
			],
			"type":"SCALAR"
		},
		{
			"bufferView":8,
			"componentType":5126,
			"count":2,
			"type":"VEC3"
		},
		{
			"bufferView":9,
			"componentType":5126,
			"count":2,
			"type":"VEC4"
		},
		{
			"bufferView":10,
			"componentType":5126,
			"count":2,
			"type":"VEC3"
		},
		{
			"bufferView":11,
			"componentType":5126,
			"count":2,
			"type":"VEC3"
		},
		{
			"bufferView":12,
			"componentType":5126,
			"count":31,
			"max":[
				1.0333333333333334
			],
			"min":[
				0.03333333333333333
			],
			"type":"SCALAR"
		},
		{
			"bufferView":13,
			"componentType":5126,
			"count":31,
			"type":"VEC4"
		},
		{
			"bufferView":14,
			"componentType":5126,
			"count":2,
			"type":"VEC3"
		},
		{
			"bufferView":15,
			"componentType":5126,
			"count":2,
			"type":"VEC3"
		},
		{
			"bufferView":16,
			"componentType":5126,
			"count":31,
			"type":"VEC4"
		},
		{
			"bufferView":17,
			"componentType":5126,
			"count":2,
			"type":"VEC3"
		},
		{
			"bufferView":18,
			"componentType":5126,
			"count":31,
			"type":"VEC3"
		},
		{
			"bufferView":19,
			"componentType":5126,
			"count":31,
			"type":"VEC4"
		},
		{
			"bufferView":20,
			"componentType":5126,
			"count":2,
			"type":"VEC3"
		},
		{
			"bufferView":21,
			"componentType":5126,
			"count":2,
			"type":"VEC3"
		},
		{
			"bufferView":22,
			"componentType":5126,
			"count":31,
			"type":"VEC4"
		},
		{
			"bufferView":23,
			"componentType":5126,
			"count":2,
			"type":"VEC3"
		},
		{
			"bufferView":24,
			"componentType":5126,
			"count":2,
			"type":"VEC3"
		},
		{
			"bufferView":25,
			"componentType":5126,
			"count":31,
			"type":"VEC4"
		},
		{
			"bufferView":26,
			"componentType":5126,
			"count":2,
			"type":"VEC3"
		},
		{
			"bufferView":27,
			"componentType":5126,
			"count":2,
			"type":"VEC3"
		},
		{
			"bufferView":28,
			"componentType":5126,
			"count":31,
			"type":"VEC4"
		},
		{
			"bufferView":29,
			"componentType":5126,
			"count":2,
			"type":"VEC3"
		},
		{
			"bufferView":30,
			"componentType":5126,
			"count":2,
			"type":"VEC3"
		},
		{
			"bufferView":31,
			"componentType":5126,
			"count":31,
			"type":"VEC4"
		},
		{
			"bufferView":32,
			"componentType":5126,
			"count":2,
			"type":"VEC3"
		},
		{
			"bufferView":33,
			"componentType":5126,
			"count":2,
			"type":"VEC3"
		},
		{
			"bufferView":34,
			"componentType":5126,
			"count":31,
			"type":"VEC4"
		},
		{
			"bufferView":35,
			"componentType":5126,
			"count":2,
			"type":"VEC3"
		},
		{
			"bufferView":36,
			"componentType":5126,
			"count":2,
			"type":"VEC3"
		},
		{
			"bufferView":37,
			"componentType":5126,
			"count":31,
			"type":"VEC4"
		},
		{
			"bufferView":38,
			"componentType":5126,
			"count":2,
			"type":"VEC3"
		},
		{
			"bufferView":39,
			"componentType":5126,
			"count":2,
			"type":"VEC3"
		},
		{
			"bufferView":40,
			"componentType":5126,
			"count":31,
			"type":"VEC4"
		},
		{
			"bufferView":41,
			"componentType":5126,
			"count":2,
			"type":"VEC3"
		},
		{
			"bufferView":42,
			"componentType":5126,
			"count":31,
			"type":"VEC3"
		},
		{
			"bufferView":43,
			"componentType":5126,
			"count":31,
			"type":"VEC4"
		},
		{
			"bufferView":44,
			"componentType":5126,
			"count":2,
			"type":"VEC3"
		},
		{
			"bufferView":45,
			"componentType":5126,
			"count":2,
			"type":"VEC3"
		},
		{
			"bufferView":46,
			"componentType":5126,
			"count":31,
			"type":"VEC4"
		},
		{
			"bufferView":47,
			"componentType":5126,
			"count":2,
			"type":"VEC3"
		},
		{
			"bufferView":48,
			"componentType":5126,
			"count":2,
			"type":"VEC3"
		},
		{
			"bufferView":49,
			"componentType":5126,
			"count":31,
			"type":"VEC4"
		},
		{
			"bufferView":50,
			"componentType":5126,
			"count":2,
			"type":"VEC3"
		},
		{
			"bufferView":51,
			"componentType":5126,
			"count":2,
			"type":"VEC3"
		},
		{
			"bufferView":52,
			"componentType":5126,
			"count":31,
			"type":"VEC4"
		},
		{
			"bufferView":53,
			"componentType":5126,
			"count":2,
			"type":"VEC3"
		},
		{
			"bufferView":54,
			"componentType":5126,
			"count":2,
			"type":"VEC3"
		},
		{
			"bufferView":55,
			"componentType":5126,
			"count":31,
			"type":"VEC4"
		},
		{
			"bufferView":56,
			"componentType":5126,
			"count":2,
			"type":"VEC3"
		},
		{
			"bufferView":57,
			"componentType":5126,
			"count":2,
			"type":"VEC3"
		},
		{
			"bufferView":58,
			"componentType":5126,
			"count":31,
			"type":"VEC4"
		},
		{
			"bufferView":59,
			"componentType":5126,
			"count":2,
			"type":"VEC3"
		},
		{
			"bufferView":60,
			"componentType":5126,
			"count":2,
			"type":"VEC3"
		},
		{
			"bufferView":61,
			"componentType":5126,
			"count":31,
			"type":"VEC4"
		},
		{
			"bufferView":62,
			"componentType":5126,
			"count":2,
			"type":"VEC3"
		},
		{
			"bufferView":63,
			"componentType":5126,
			"count":2,
			"type":"VEC3"
		},
		{
			"bufferView":64,
			"componentType":5126,
			"count":31,
			"type":"VEC4"
		},
		{
			"bufferView":65,
			"componentType":5126,
			"count":2,
			"type":"VEC3"
		},
		{
			"bufferView":66,
			"componentType":5126,
			"count":2,
			"type":"VEC3"
		},
		{
			"bufferView":67,
			"componentType":5126,
			"count":31,
			"type":"VEC4"
		},
		{
			"bufferView":68,
			"componentType":5126,
			"count":2,
			"type":"VEC3"
		},
		{
			"bufferView":69,
			"componentType":5126,
			"count":2,
			"type":"VEC3"
		},
		{
			"bufferView":70,
			"componentType":5126,
			"count":31,
			"type":"VEC4"
		},
		{
			"bufferView":71,
			"componentType":5126,
			"count":2,
			"type":"VEC3"
		},
		{
			"bufferView":72,
			"componentType":5126,
			"count":2,
			"type":"VEC3"
		},
		{
			"bufferView":73,
			"componentType":5126,
			"count":31,
			"type":"VEC4"
		},
		{
			"bufferView":74,
			"componentType":5126,
			"count":2,
			"type":"VEC3"
		},
		{
			"bufferView":75,
			"componentType":5126,
			"count":2,
			"type":"VEC3"
		},
		{
			"bufferView":76,
			"componentType":5126,
			"count":31,
			"type":"VEC4"
		},
		{
			"bufferView":77,
			"componentType":5126,
			"count":2,
			"type":"VEC3"
		},
		{
			"bufferView":78,
			"componentType":5126,
			"count":2,
			"type":"VEC3"
		},
		{
			"bufferView":79,
			"componentType":5126,
			"count":31,
			"type":"VEC4"
		},
		{
			"bufferView":80,
			"componentType":5126,
			"count":2,
			"type":"VEC3"
		},
		{
			"bufferView":81,
			"componentType":5126,
			"count":2,
			"type":"VEC3"
		},
		{
			"bufferView":82,
			"componentType":5126,
			"count":31,
			"type":"VEC4"
		},
		{
			"bufferView":83,
			"componentType":5126,
			"count":2,
			"type":"VEC3"
		},
		{
			"bufferView":84,
			"componentType":5126,
			"count":2,
			"type":"VEC3"
		},
		{
			"bufferView":85,
			"componentType":5126,
			"count":31,
			"type":"VEC4"
		},
		{
			"bufferView":86,
			"componentType":5126,
			"count":2,
			"type":"VEC3"
		},
		{
			"bufferView":87,
			"componentType":5126,
			"count":2,
			"type":"VEC3"
		},
		{
			"bufferView":88,
			"componentType":5126,
			"count":31,
			"type":"VEC4"
		},
		{
			"bufferView":89,
			"componentType":5126,
			"count":2,
			"type":"VEC3"
		},
		{
			"bufferView":90,
			"componentType":5126,
			"count":2,
			"type":"VEC3"
		},
		{
			"bufferView":91,
			"componentType":5126,
			"count":31,
			"type":"VEC4"
		},
		{
			"bufferView":92,
			"componentType":5126,
			"count":2,
			"type":"VEC3"
		},
		{
			"bufferView":93,
			"componentType":5126,
			"count":2,
			"type":"VEC3"
		},
		{
			"bufferView":94,
			"componentType":5126,
			"count":31,
			"type":"VEC4"
		},
		{
			"bufferView":95,
			"componentType":5126,
			"count":2,
			"type":"VEC3"
		},
		{
			"bufferView":96,
			"componentType":5126,
			"count":2,
			"type":"VEC3"
		},
		{
			"bufferView":97,
			"componentType":5126,
			"count":31,
			"type":"VEC4"
		},
		{
			"bufferView":98,
			"componentType":5126,
			"count":2,
			"type":"VEC3"
		},
		{
			"bufferView":99,
			"componentType":5126,
			"count":2,
			"type":"VEC3"
		},
		{
			"bufferView":100,
			"componentType":5126,
			"count":31,
			"type":"VEC4"
		},
		{
			"bufferView":101,
			"componentType":5126,
			"count":2,
			"type":"VEC3"
		},
		{
			"bufferView":102,
			"componentType":5126,
			"count":2,
			"type":"VEC3"
		},
		{
			"bufferView":103,
			"componentType":5126,
			"count":31,
			"type":"VEC4"
		},
		{
			"bufferView":104,
			"componentType":5126,
			"count":2,
			"type":"VEC3"
		},
		{
			"bufferView":105,
			"componentType":5126,
			"count":2,
			"type":"VEC3"
		},
		{
			"bufferView":106,
			"componentType":5126,
			"count":31,
			"type":"VEC4"
		},
		{
			"bufferView":107,
			"componentType":5126,
			"count":2,
			"type":"VEC3"
		},
		{
			"bufferView":108,
			"componentType":5126,
			"count":2,
			"type":"VEC3"
		},
		{
			"bufferView":109,
			"componentType":5126,
			"count":31,
			"type":"VEC4"
		},
		{
			"bufferView":110,
			"componentType":5126,
			"count":2,
			"type":"VEC3"
		},
		{
			"bufferView":111,
			"componentType":5126,
			"count":2,
			"type":"VEC3"
		},
		{
			"bufferView":112,
			"componentType":5126,
			"count":31,
			"type":"VEC4"
		},
		{
			"bufferView":113,
			"componentType":5126,
			"count":2,
			"type":"VEC3"
		},
		{
			"bufferView":114,
			"componentType":5126,
			"count":2,
			"type":"VEC3"
		},
		{
			"bufferView":115,
			"componentType":5126,
			"count":31,
			"type":"VEC4"
		},
		{
			"bufferView":116,
			"componentType":5126,
			"count":2,
			"type":"VEC3"
		},
		{
			"bufferView":117,
			"componentType":5126,
			"count":2,
			"type":"VEC3"
		},
		{
			"bufferView":118,
			"componentType":5126,
			"count":31,
			"type":"VEC4"
		},
		{
			"bufferView":119,
			"componentType":5126,
			"count":2,
			"type":"VEC3"
		},
		{
			"bufferView":120,
			"componentType":5126,
			"count":2,
			"type":"VEC3"
		},
		{
			"bufferView":121,
			"componentType":5126,
			"count":2,
			"type":"VEC4"
		},
		{
			"bufferView":122,
			"componentType":5126,
			"count":2,
			"type":"VEC3"
		}
	],
	"bufferViews":[
		{
			"buffer":0,
			"byteLength":66576,
			"byteOffset":0,
			"target":34962
		},
		{
			"buffer":0,
			"byteLength":66576,
			"byteOffset":66576,
			"target":34962
		},
		{
			"buffer":0,
			"byteLength":44384,
			"byteOffset":133152,
			"target":34962
		},
		{
			"buffer":0,
			"byteLength":22192,
			"byteOffset":177536,
			"target":34962
		},
		{
			"buffer":0,
			"byteLength":88768,
			"byteOffset":199728,
			"target":34962
		},
		{
			"buffer":0,
			"byteLength":53310,
			"byteOffset":288496,
			"target":34963
		},
		{
			"buffer":0,
			"byteLength":2368,
			"byteOffset":341808
		},
		{
			"buffer":0,
			"byteLength":8,
			"byteOffset":344176
		},
		{
			"buffer":0,
			"byteLength":24,
			"byteOffset":344184
		},
		{
			"buffer":0,
			"byteLength":32,
			"byteOffset":344208
		},
		{
			"buffer":0,
			"byteLength":24,
			"byteOffset":344240
		},
		{
			"buffer":0,
			"byteLength":24,
			"byteOffset":344264
		},
		{
			"buffer":0,
			"byteLength":124,
			"byteOffset":344288
		},
		{
			"buffer":0,
			"byteLength":496,
			"byteOffset":344412
		},
		{
			"buffer":0,
			"byteLength":24,
			"byteOffset":344908
		},
		{
			"buffer":0,
			"byteLength":24,
			"byteOffset":344932
		},
		{
			"buffer":0,
			"byteLength":496,
			"byteOffset":344956
		},
		{
			"buffer":0,
			"byteLength":24,
			"byteOffset":345452
		},
		{
			"buffer":0,
			"byteLength":372,
			"byteOffset":345476
		},
		{
			"buffer":0,
			"byteLength":496,
			"byteOffset":345848
		},
		{
			"buffer":0,
			"byteLength":24,
			"byteOffset":346344
		},
		{
			"buffer":0,
			"byteLength":24,
			"byteOffset":346368
		},
		{
			"buffer":0,
			"byteLength":496,
			"byteOffset":346392
		},
		{
			"buffer":0,
			"byteLength":24,
			"byteOffset":346888
		},
		{
			"buffer":0,
			"byteLength":24,
			"byteOffset":346912
		},
		{
			"buffer":0,
			"byteLength":496,
			"byteOffset":346936
		},
		{
			"buffer":0,
			"byteLength":24,
			"byteOffset":347432
		},
		{
			"buffer":0,
			"byteLength":24,
			"byteOffset":347456
		},
		{
			"buffer":0,
			"byteLength":496,
			"byteOffset":347480
		},
		{
			"buffer":0,
			"byteLength":24,
			"byteOffset":347976
		},
		{
			"buffer":0,
			"byteLength":24,
			"byteOffset":348000
		},
		{
			"buffer":0,
			"byteLength":496,
			"byteOffset":348024
		},
		{
			"buffer":0,
			"byteLength":24,
			"byteOffset":348520
		},
		{
			"buffer":0,
			"byteLength":24,
			"byteOffset":348544
		},
		{
			"buffer":0,
			"byteLength":496,
			"byteOffset":348568
		},
		{
			"buffer":0,
			"byteLength":24,
			"byteOffset":349064
		},
		{
			"buffer":0,
			"byteLength":24,
			"byteOffset":349088
		},
		{
			"buffer":0,
			"byteLength":496,
			"byteOffset":349112
		},
		{
			"buffer":0,
			"byteLength":24,
			"byteOffset":349608
		},
		{
			"buffer":0,
			"byteLength":24,
			"byteOffset":349632
		},
		{
			"buffer":0,
			"byteLength":496,
			"byteOffset":349656
		},
		{
			"buffer":0,
			"byteLength":24,
			"byteOffset":350152
		},
		{
			"buffer":0,
			"byteLength":372,
			"byteOffset":350176
		},
		{
			"buffer":0,
			"byteLength":496,
			"byteOffset":350548
		},
		{
			"buffer":0,
			"byteLength":24,
			"byteOffset":351044
		},
		{
			"buffer":0,
			"byteLength":24,
			"byteOffset":351068
		},
		{
			"buffer":0,
			"byteLength":496,
			"byteOffset":351092
		},
		{
			"buffer":0,
			"byteLength":24,
			"byteOffset":351588
		},
		{
			"buffer":0,
			"byteLength":24,
			"byteOffset":351612
		},
		{
			"buffer":0,
			"byteLength":496,
			"byteOffset":351636
		},
		{
			"buffer":0,
			"byteLength":24,
			"byteOffset":352132
		},
		{
			"buffer":0,
			"byteLength":24,
			"byteOffset":352156
		},
		{
			"buffer":0,
			"byteLength":496,
			"byteOffset":352180
		},
		{
			"buffer":0,
			"byteLength":24,
			"byteOffset":352676
		},
		{
			"buffer":0,
			"byteLength":24,
			"byteOffset":352700
		},
		{
			"buffer":0,
			"byteLength":496,
			"byteOffset":352724
		},
		{
			"buffer":0,
			"byteLength":24,
			"byteOffset":353220
		},
		{
			"buffer":0,
			"byteLength":24,
			"byteOffset":353244
		},
		{
			"buffer":0,
			"byteLength":496,
			"byteOffset":353268
		},
		{
			"buffer":0,
			"byteLength":24,
			"byteOffset":353764
		},
		{
			"buffer":0,
			"byteLength":24,
			"byteOffset":353788
		},
		{
			"buffer":0,
			"byteLength":496,
			"byteOffset":353812
		},
		{
			"buffer":0,
			"byteLength":24,
			"byteOffset":354308
		},
		{
			"buffer":0,
			"byteLength":24,
			"byteOffset":354332
		},
		{
			"buffer":0,
			"byteLength":496,
			"byteOffset":354356
		},
		{
			"buffer":0,
			"byteLength":24,
			"byteOffset":354852
		},
		{
			"buffer":0,
			"byteLength":24,
			"byteOffset":354876
		},
		{
			"buffer":0,
			"byteLength":496,
			"byteOffset":354900
		},
		{
			"buffer":0,
			"byteLength":24,
			"byteOffset":355396
		},
		{
			"buffer":0,
			"byteLength":24,
			"byteOffset":355420
		},
		{
			"buffer":0,
			"byteLength":496,
			"byteOffset":355444
		},
		{
			"buffer":0,
			"byteLength":24,
			"byteOffset":355940
		},
		{
			"buffer":0,
			"byteLength":24,
			"byteOffset":355964
		},
		{
			"buffer":0,
			"byteLength":496,
			"byteOffset":355988
		},
		{
			"buffer":0,
			"byteLength":24,
			"byteOffset":356484
		},
		{
			"buffer":0,
			"byteLength":24,
			"byteOffset":356508
		},
		{
			"buffer":0,
			"byteLength":496,
			"byteOffset":356532
		},
		{
			"buffer":0,
			"byteLength":24,
			"byteOffset":357028
		},
		{
			"buffer":0,
			"byteLength":24,
			"byteOffset":357052
		},
		{
			"buffer":0,
			"byteLength":496,
			"byteOffset":357076
		},
		{
			"buffer":0,
			"byteLength":24,
			"byteOffset":357572
		},
		{
			"buffer":0,
			"byteLength":24,
			"byteOffset":357596
		},
		{
			"buffer":0,
			"byteLength":496,
			"byteOffset":357620
		},
		{
			"buffer":0,
			"byteLength":24,
			"byteOffset":358116
		},
		{
			"buffer":0,
			"byteLength":24,
			"byteOffset":358140
		},
		{
			"buffer":0,
			"byteLength":496,
			"byteOffset":358164
		},
		{
			"buffer":0,
			"byteLength":24,
			"byteOffset":358660
		},
		{
			"buffer":0,
			"byteLength":24,
			"byteOffset":358684
		},
		{
			"buffer":0,
			"byteLength":496,
			"byteOffset":358708
		},
		{
			"buffer":0,
			"byteLength":24,
			"byteOffset":359204
		},
		{
			"buffer":0,
			"byteLength":24,
			"byteOffset":359228
		},
		{
			"buffer":0,
			"byteLength":496,
			"byteOffset":359252
		},
		{
			"buffer":0,
			"byteLength":24,
			"byteOffset":359748
		},
		{
			"buffer":0,
			"byteLength":24,
			"byteOffset":359772
		},
		{
			"buffer":0,
			"byteLength":496,
			"byteOffset":359796
		},
		{
			"buffer":0,
			"byteLength":24,
			"byteOffset":360292
		},
		{
			"buffer":0,
			"byteLength":24,
			"byteOffset":360316
		},
		{
			"buffer":0,
			"byteLength":496,
			"byteOffset":360340
		},
		{
			"buffer":0,
			"byteLength":24,
			"byteOffset":360836
		},
		{
			"buffer":0,
			"byteLength":24,
			"byteOffset":360860
		},
		{
			"buffer":0,
			"byteLength":496,
			"byteOffset":360884
		},
		{
			"buffer":0,
			"byteLength":24,
			"byteOffset":361380
		},
		{
			"buffer":0,
			"byteLength":24,
			"byteOffset":361404
		},
		{
			"buffer":0,
			"byteLength":496,
			"byteOffset":361428
		},
		{
			"buffer":0,
			"byteLength":24,
			"byteOffset":361924
		},
		{
			"buffer":0,
			"byteLength":24,
			"byteOffset":361948
		},
		{
			"buffer":0,
			"byteLength":496,
			"byteOffset":361972
		},
		{
			"buffer":0,
			"byteLength":24,
			"byteOffset":362468
		},
		{
			"buffer":0,
			"byteLength":24,
			"byteOffset":362492
		},
		{
			"buffer":0,
			"byteLength":496,
			"byteOffset":362516
		},
		{
			"buffer":0,
			"byteLength":24,
			"byteOffset":363012
		},
		{
			"buffer":0,
			"byteLength":24,
			"byteOffset":363036
		},
		{
			"buffer":0,
			"byteLength":496,
			"byteOffset":363060
		},
		{
			"buffer":0,
			"byteLength":24,
			"byteOffset":363556
		},
		{
			"buffer":0,
			"byteLength":24,
			"byteOffset":363580
		},
		{
			"buffer":0,
			"byteLength":496,
			"byteOffset":363604
		},
		{
			"buffer":0,
			"byteLength":24,
			"byteOffset":364100
		},
		{
			"buffer":0,
			"byteLength":24,
			"byteOffset":364124
		},
		{
			"buffer":0,
			"byteLength":496,
			"byteOffset":364148
		},
		{
			"buffer":0,
			"byteLength":24,
			"byteOffset":364644
		},
		{
			"buffer":0,
			"byteLength":24,
			"byteOffset":364668
		},
		{
			"buffer":0,
			"byteLength":32,
			"byteOffset":364692
		},
		{
			"buffer":0,
			"byteLength":24,
			"byteOffset":364724
		}
	],
	"buffers":[
		{
			"byteLength":364748,
			"uri":"Fox_low_walk.bin"
		}
	]
}
