{
	"asset":{
		"generator":"Khronos glTF Blender I/O v4.1.62",
		"version":"2.0"
	},
	"scene":0,
	"scenes":[
		{
			"name":"Scene",
			"nodes":[
				44
			]
		}
	],
	"nodes":[
		{
			"name":"head0_end",
			"rotation":[
				1.4915711332719184e-08,
				1.0943040251731873e-08,
				4.831235855817795e-09,
				1
			],
			"scale":[
				1,
				1.0000001192092896,
				1.0000001192092896
			],
			"translation":[
				-2.514570951461792e-08,
				7.042023181915283,
				-2.4659602786414325e-06
			]
		},
		{
			"children":[
				0
			],
			"name":"head0",
			"rotation":[
				0.6175451874732971,
				0.007379013113677502,
				0.010560426861047745,
				0.7864299416542053
			],
			"scale":[
				0.9999999403953552,
				1,
				0.9999998807907104
			],
			"translation":[
				7.450580596923828e-09,
				4.087073802947998,
				1.835272996686399e-06
			]
		},
		{
			"children":[
				1
			],
			"name":"neck1",
			"rotation":[
				-0.3039166033267975,
				-0.001716342754662037,
				0.0010357856517657638,
				0.9526965618133545
			],
			"scale":[
				0.9999999403953552,
				1,
				0.9999998807907104
			],
			"translation":[
				9.313709625757838e-08,
				4.623799800872803,
				2.153637296942179e-06
			]
		},
		{
			"children":[
				2
			],
			"name":"neck0",
			"rotation":[
				-0.0727945864200592,
				-0.007453098893165588,
				-0.00989388208836317,
				0.9972700476646423
			],
			"scale":[
				0.9999999403953552,
				1.0000001192092896,
				1
			],
			"translation":[
				-3.725290298461914e-08,
				5.530109405517578,
				-6.27333065494895e-07
			]
		},
		{
			"name":"leg_front_right_toe_end",
			"rotation":[
				-2.980232238769531e-07,
				2.04891179578226e-08,
				3.475372794452605e-14,
				1
			],
			"translation":[
				-8.493738334891532e-08,
				2.9999961853027344,
				1.7870486317406176e-06
			]
		},
		{
			"children":[
				4
			],
			"name":"leg_front_right_toe",
			"rotation":[
				-0.5578733682632446,
				-0.09064703434705734,
				-0.0906468853354454,
				0.8199656009674072
			],
			"scale":[
				1.0000001192092896,
				1.0000001192092896,
				1.0000001192092896
			],
			"translation":[
				8.344650268554688e-07,
				5.261420249938965,
				0
			]
		},
		{
			"children":[
				5
			],
			"name":"leg_front_right_ankle",
			"rotation":[
				0.09921522438526154,
				-0.9796384572982788,
				-0.17329174280166626,
				0.020851612091064453
			],
			"scale":[
				1,
				0.9999996423721313,
				0.9999999403953552
			],
			"translation":[
				4.76837158203125e-07,
				10.326669692993164,
				2.294778823852539e-06
			]
		},
		{
			"children":[
				6
			],
			"name":"leg_front_right_bot0",
			"rotation":[
				-0.004310229327529669,
				0.1235874742269516,
				-0.04378790035843849,
				0.9913577437400818
			],
			"scale":[
				0.9999999403953552,
				1.0000001192092896,
				1.0000001192092896
			],
			"translation":[
				-2.714223228394985e-07,
				7.1774396896362305,
				2.0676479834946804e-06
			]
		},
		{
			"children":[
				7
			],
			"name":"leg_front_right_top1",
			"rotation":[
				-0.03290368989109993,
				0.9435240030288696,
				0.0791594386100769,
				0.32002127170562744
			],
			"translation":[
				8.344650268554688e-07,
				4.951401233673096,
				-1.341104507446289e-06
			]
		},
		{
			"children":[
				8
			],
			"name":"leg_front_right_top0",
			"rotation":[
				0.6774830222129822,
				0.19382040202617645,
				0.24605338275432587,
				0.6655135154724121
			],
			"scale":[
				1,
				0.9999999403953552,
				1
			],
			"translation":[
				-1.816348671913147,
				2.85306978225708,
				3.480333089828491
			]
		},
		{
			"name":"leg_front_left_toe_end",
			"rotation":[
				-1.4901164746561335e-08,
				8.599211298587761e-08,
				7.202223883950865e-08,
				1
			],
			"translation":[
				1.1399441746107186e-07,
				3.0000038146972656,
				1.3593921721621882e-06
			]
		},
		{
			"children":[
				10
			],
			"name":"leg_front_left_toe",
			"rotation":[
				-0.5578740239143372,
				0.09064754098653793,
				0.09064759314060211,
				0.8199650049209595
			],
			"scale":[
				1,
				0.9999998807907104,
				1.0000001192092896
			],
			"translation":[
				-9.5367431640625e-07,
				5.26141881942749,
				1.1920928955078125e-06
			]
		},
		{
			"children":[
				11
			],
			"name":"leg_front_left_ankle",
			"rotation":[
				0.09921497851610184,
				0.9796386361122131,
				0.1732909083366394,
				0.02085324190557003
			],
			"scale":[
				0.9999999403953552,
				0.9999998807907104,
				1
			],
			"translation":[
				2.384185791015625e-07,
				10.326667785644531,
				1.1920928955078125e-06
			]
		},
		{
			"children":[
				12
			],
			"name":"leg_front_left_bot0",
			"rotation":[
				-0.004309809301048517,
				-0.1235835999250412,
				0.04378795996308327,
				0.9913582801818848
			],
			"scale":[
				0.9999999403953552,
				1,
				1
			],
			"translation":[
				-5.187786882743239e-06,
				7.177438735961914,
				5.590231012320146e-06
			]
		},
		{
			"children":[
				13
			],
			"name":"leg_front_left_top1",
			"rotation":[
				-0.03290402889251709,
				-0.9435246586799622,
				-0.07915938645601273,
				0.32001936435699463
			],
			"scale":[
				0.9999999403953552,
				1.0000001192092896,
				0.9999999403953552
			],
			"translation":[
				1.646578311920166e-06,
				4.951401233673096,
				8.434057235717773e-06
			]
		},
		{
			"children":[
				14
			],
			"name":"leg_front_left_top0",
			"rotation":[
				0.6774827837944031,
				-0.20479710400104523,
				-0.2471034675836563,
				0.6618271470069885
			],
			"scale":[
				1,
				1,
				1.000000238418579
			],
			"translation":[
				1.816579818725586,
				2.820220947265625,
				3.5068843364715576
			]
		},
		{
			"children":[
				3,
				9,
				15
			],
			"name":"body_top1",
			"rotation":[
				0.030616028234362602,
				0.003514012787491083,
				0.004630540031939745,
				0.9995143413543701
			],
			"scale":[
				1,
				0.9999999403953552,
				1.0000001192092896
			],
			"translation":[
				0,
				6.881376266479492,
				-2.384185791015625e-07
			]
		},
		{
			"children":[
				16
			],
			"name":"body_top0",
			"rotation":[
				-0.1787223517894745,
				0,
				0,
				0.9838995337486267
			],
			"scale":[
				1,
				0.9999998807907104,
				0.9999998807907104
			],
			"translation":[
				0,
				5.394742488861084,
				-7.152557373046875e-07
			]
		},
		{
			"name":"tail8_end",
			"rotation":[
				-1.4129911107829685e-07,
				5.9269954277851866e-08,
				-2.2031601432104253e-08,
				1
			],
			"scale":[
				1,
				0.9999999403953552,
				0.9999998807907104
			],
			"translation":[
				8.940696716308594e-08,
				4.878247261047363,
				-1.0151416063308716e-07
			]
		},
		{
			"children":[
				18
			],
			"name":"tail8",
			"rotation":[
				-0.014908518642187119,
				0.003122881520539522,
				-0.0030708471313118935,
				0.9998792409896851
			],
			"scale":[
				1,
				1.0000001192092896,
				1.0000001192092896
			],
			"translation":[
				2.9802322387695312e-08,
				3.872528553009033,
				1.778826117515564e-07
			]
		},
		{
			"children":[
				19
			],
			"name":"tail7",
			"rotation":[
				0.0433083139359951,
				-0.0008200485608540475,
				-9.846124157775193e-05,
				0.9990614056587219
			],
			"translation":[
				2.9802322387695312e-08,
				3.7809760570526123,
				3.0314549803733826e-07
			]
		},
		{
			"children":[
				20
			],
			"name":"tail6",
			"rotation":[
				0.031806714832782745,
				-0.0018180335173383355,
				0.0011459998786449432,
				0.9994917511940002
			],
			"scale":[
				1,
				0.9999999403953552,
				0.9999999403953552
			],
			"translation":[
				3.3527612686157227e-08,
				4.873048305511475,
				-9.476207196712494e-07
			]
		},
		{
			"children":[
				21
			],
			"name":"tail5",
			"rotation":[
				-0.016211409121751785,
				0.0021186713129281998,
				-0.0017050140304490924,
				0.9998648762702942
			],
			"scale":[
				0.9999998807907104,
				0.9999997615814209,
				0.9999999403953552
			],
			"translation":[
				0,
				3.8441646099090576,
				4.0046870708465576e-07
			]
		},
		{
			"children":[
				22
			],
			"name":"tail4",
			"rotation":[
				0.034071020781993866,
				-0.0008950280607677996,
				0.0001278286799788475,
				0.9994189739227295
			],
			"scale":[
				1.0000001192092896,
				1,
				1
			],
			"translation":[
				-2.9802322387695312e-08,
				5.56774377822876,
				-5.553010851144791e-07
			]
		},
		{
			"children":[
				23
			],
			"name":"tail3",
			"rotation":[
				0.00912025198340416,
				-0.01285818312317133,
				0.011481845751404762,
				0.9998098611831665
			],
			"scale":[
				0.9999998807907104,
				0.9999999403953552,
				0.9999998211860657
			],
			"translation":[
				1.3970154810749591e-08,
				4.461441516876221,
				-7.15354360636411e-07
			]
		},
		{
			"children":[
				24
			],
			"name":"tail2",
			"rotation":[
				0.05783616006374359,
				0.0004776226996909827,
				-0.00024234737793449312,
				0.9983259439468384
			],
			"scale":[
				1.0000001192092896,
				1,
				1
			],
			"translation":[
				9.313225746154785e-10,
				6.106081485748291,
				2.346496330574155e-08
			]
		},
		{
			"children":[
				25
			],
			"name":"tail1",
			"rotation":[
				0.012986036017537117,
				-0.0010404367931187153,
				0.0008543432340957224,
				0.9999147653579712
			],
			"scale":[
				0.9999999403953552,
				1,
				1
			],
			"translation":[
				1.862645149230957e-09,
				5.6538848876953125,
				7.685594027861953e-07
			]
		},
		{
			"children":[
				26
			],
			"name":"tail0",
			"rotation":[
				-0.08925855904817581,
				0.007729798089712858,
				-0.006318898871541023,
				0.9959584474563599
			],
			"scale":[
				1,
				1.0000001192092896,
				1
			],
			"translation":[
				-3.725290298461914e-09,
				5.411924362182617,
				3.0850060284137726e-08
			]
		},
		{
			"children":[
				27
			],
			"name":"pelvis",
			"rotation":[
				-0.12395510822534561,
				-0.004385617095977068,
				0.0052032992243766785,
				0.9922645092010498
			],
			"translation":[
				0,
				4.044090270996094,
				-8.642673492431641e-07
			]
		},
		{
			"name":"leg_hind_left_toe_end",
			"rotation":[
				-3.129187007289147e-07,
				-9.32562613797927e-08,
				1.601879517920679e-07,
				1
			],
			"translation":[
				-3.9617702896066476e-07,
				3.000000238418579,
				6.048940122127533e-07
			]
		},
		{
			"children":[
				29
			],
			"name":"leg_hind_left_toe",
			"rotation":[
				-0.5873726606369019,
				-0.01702778972685337,
				-0.01702742837369442,
				0.8089582920074463
			],
			"scale":[
				1.0000001192092896,
				1,
				0.9999998807907104
			],
			"translation":[
				6.407499313354492e-07,
				6.6254377365112305,
				1.2814998626708984e-06
			]
		},
		{
			"children":[
				30
			],
			"name":"leg_hind_left_ankle",
			"rotation":[
				-0.3360564708709717,
				-0.287210077047348,
				-0.05377466231584549,
				0.8953685164451599
			],
			"translation":[
				1.1920928955078125e-07,
				11.991839408874512,
				-1.6689300537109375e-06
			]
		},
		{
			"children":[
				31
			],
			"name":"leg_hind_left_bot0",
			"rotation":[
				0.2448226660490036,
				0.7735608220100403,
				-0.07784672826528549,
				0.579314649105072
			],
			"scale":[
				1,
				0.9999999403953552,
				0.9999999403953552
			],
			"translation":[
				2.9802322387695312e-08,
				4.942904472351074,
				-2.980232238769531e-07
			]
		},
		{
			"children":[
				32
			],
			"name":"leg_hind_left_top1",
			"rotation":[
				0.2670759856700897,
				-0.042610056698322296,
				-0.1828671097755432,
				0.9452060461044312
			],
			"scale":[
				1,
				1.0000001192092896,
				0.9999999403953552
			],
			"translation":[
				2.980232238769531e-07,
				4.024929046630859,
				-1.1920928955078125e-07
			]
		},
		{
			"children":[
				33
			],
			"name":"leg_hind_left_top0",
			"rotation":[
				-0.8614938855171204,
				-0.30308619141578674,
				0.3595964014530182,
				0.19146142899990082
			],
			"scale":[
				0.9999998807907104,
				0.9999999403953552,
				0.9999998807907104
			],
			"translation":[
				1.6023496389389038,
				2.935917854309082,
				-3.574240207672119
			]
		},
		{
			"name":"leg_hind_right_toe_end",
			"rotation":[
				-3.129187007289147e-07,
				9.32562613797927e-08,
				-1.601879517920679e-07,
				1
			],
			"translation":[
				3.9617702896066476e-07,
				3.000000238418579,
				6.048940122127533e-07
			]
		},
		{
			"children":[
				35
			],
			"name":"leg_hind_right_toe",
			"rotation":[
				-0.5873726606369019,
				0.01702778972685337,
				0.01702742837369442,
				0.8089582920074463
			],
			"scale":[
				1.0000001192092896,
				1,
				0.9999998807907104
			],
			"translation":[
				-6.407499313354492e-07,
				6.6254377365112305,
				1.2814998626708984e-06
			]
		},
		{
			"children":[
				36
			],
			"name":"leg_hind_right_ankle",
			"rotation":[
				-0.3360564708709717,
				0.287210077047348,
				0.05377466231584549,
				0.8953685164451599
			],
			"translation":[
				-1.1920928955078125e-07,
				11.991839408874512,
				-1.6689300537109375e-06
			]
		},
		{
			"children":[
				37
			],
			"name":"leg_hind_right_bot0",
			"rotation":[
				0.2448226660490036,
				-0.7735608220100403,
				0.07784672826528549,
				0.579314649105072
			],
			"scale":[
				1,
				0.9999999403953552,
				0.9999999403953552
			],
			"translation":[
				-2.9802322387695312e-08,
				4.942904472351074,
				-2.980232238769531e-07
			]
		},
		{
			"children":[
				38
			],
			"name":"leg_hind_right_top1",
			"rotation":[
				0.2670759856700897,
				0.042610056698322296,
				0.1828671097755432,
				0.9452060461044312
			],
			"scale":[
				1,
				1.0000001192092896,
				0.9999999403953552
			],
			"translation":[
				-2.980232238769531e-07,
				4.024929046630859,
				-1.1920928955078125e-07
			]
		},
		{
			"children":[
				39
			],
			"name":"leg_hind_right_top0",
			"rotation":[
				-0.8614938855171204,
				0.30308619141578674,
				-0.3595964014530182,
				0.19146142899990082
			],
			"scale":[
				0.9999998807907104,
				0.9999999403953552,
				0.9999998807907104
			],
			"translation":[
				-1.6023496389389038,
				2.935917854309082,
				-3.574240207672119
			]
		},
		{
			"children":[
				28,
				34,
				40
			],
			"name":"body_bot",
			"rotation":[
				-0.9991340041160583,
				0,
				0,
				0.04160868003964424
			],
			"scale":[
				1,
				0.9999999403953552,
				1.0000118017196655
			],
			"translation":[
				0,
				-4.055355072021484,
				0.958755612373352
			]
		},
		{
			"children":[
				17,
				41
			],
			"name":"body",
			"rotation":[
				0.04343457892537117,
				0,
				0,
				0.9990562796592712
			],
			"translation":[
				0,
				10.14811897277832,
				-7.868194103240967
			]
		},
		{
			"mesh":0,
			"name":"Fox_low",
			"skin":0
		},
		{
			"children":[
				43,
				42
			],
			"name":"rig",
			"rotation":[
				0.7071068286895752,
				0,
				0,
				0.7071068286895752
			]
		}
	],
	"materials":[
		{
			"doubleSided":true,
			"name":"Fox",
			"pbrMetallicRoughness":{
				"baseColorFactor":[
					0.5,
					0.5,
					0.5,
					1
				],
				"metallicFactor":0,
				"roughnessFactor":0.5527864098548889
			}
		}
	],
	"meshes":[
		{
			"name":"Fox_low",
			"primitives":[
				{
					"attributes":{
						"POSITION":0,
						"NORMAL":1,
						"TEXCOORD_0":2,
						"JOINTS_0":3,
						"WEIGHTS_0":4
					},
					"indices":5,
					"material":0
				}
			]
		}
	],
	"skins":[
		{
			"inverseBindMatrices":6,
			"joints":[
				42,
				17,
				16,
				3,
				2,
				1,
				0,
				9,
				8,
				7,
				6,
				5,
				4,
				15,
				14,
				13,
				12,
				11,
				10,
				41,
				28,
				27,
				26,
				25,
				24,
				23,
				22,
				21,
				20,
				19,
				18,
				34,
				33,
				32,
				31,
				30,
				29,
				40,
				39,
				38,
				37,
				36,
				35
			],
			"name":"rig"
		}
	],
	"accessors":[
		{
			"bufferView":0,
			"componentType":5126,
			"count":5548,
			"max":[
				10.986394882202148,
				21.66642189025879,
				43.702003479003906
			],
			"min":[
				-10.986394882202148,
				-21.666423797607422,
				-43.702003479003906
			],
			"type":"VEC3"
		},
		{
			"bufferView":1,
			"componentType":5126,
			"count":5548,
			"type":"VEC3"
		},
		{
			"bufferView":2,
			"componentType":5126,
			"count":5548,
			"type":"VEC2"
		},
		{
			"bufferView":3,
			"componentType":5121,
			"count":5548,
			"type":"VEC4"
		},
		{
			"bufferView":4,
			"componentType":5126,
			"count":5548,
			"type":"VEC4"
		},
		{
			"bufferView":5,
			"componentType":5123,
			"count":26655,
			"type":"SCALAR"
		},
		{
			"bufferView":6,
			"componentType":5126,
			"count":43,
			"type":"MAT4"
		}
	],
	"bufferViews":[
		{
			"buffer":0,
			"byteLength":66576,
			"byteOffset":0,
			"target":34962
		},
		{
			"buffer":0,
			"byteLength":66576,
			"byteOffset":66576,
			"target":34962
		},
		{
			"buffer":0,
			"byteLength":44384,
			"byteOffset":133152,
			"target":34962
		},
		{
			"buffer":0,
			"byteLength":22192,
			"byteOffset":177536,
			"target":34962
		},
		{
			"buffer":0,
			"byteLength":88768,
			"byteOffset":199728,
			"target":34962
		},
		{
			"buffer":0,
			"byteLength":53310,
			"byteOffset":288496,
			"target":34963
		},
		{
			"buffer":0,
			"byteLength":2752,
			"byteOffset":341808
		}
	],
	"buffers":[
		{
			"byteLength":344560,
			"uri":"data:application/octet-stream;base64,"
		}
	]
}
